<svg width="76" height="25" viewBox="0 0 76 25" fill="none" xmlns="http://www.w3.org/2000/svg">
<path d="M15.5039 4.14844H10.3076V24.2031H5.21094V4.14844H-0.00195312V0.363281H15.5039V4.14844ZM25.9297 -0.00195312C28.8405 -0.00195312 30.9434 0.811523 32.2383 2.43848C33.5443 4.05436 34.1973 7.23079 34.1973 11.9678C34.1973 16.8154 33.5387 20.1302 32.2217 21.9121C30.9046 23.694 28.8073 24.585 25.9297 24.585C23.0632 24.585 20.9714 23.694 19.6543 21.9121C18.3372 20.1302 17.6787 16.8154 17.6787 11.9678C17.6787 7.23079 18.3262 4.05436 19.6211 2.43848C20.916 0.811523 23.0189 -0.00195312 25.9297 -0.00195312ZM25.9297 21.0488C27.0586 21.0488 27.8555 20.346 28.3203 18.9404C28.7962 17.5238 29.0342 15.1774 29.0342 11.9014C29.0342 8.80241 28.8018 6.63314 28.3369 5.39355C27.8831 4.15397 27.0807 3.53418 25.9297 3.53418C24.7454 3.53418 23.932 4.17057 23.4893 5.44336C23.0576 6.71615 22.8418 8.86882 22.8418 11.9014C22.8418 15.1663 23.0742 17.5072 23.5391 18.9238C24.015 20.3405 24.8118 21.0488 25.9297 21.0488ZM38.3975 0.363281H46.2832C49.194 0.363281 51.3411 1.20996 52.7246 2.90332C54.1191 4.58561 54.8164 7.58496 54.8164 11.9014C54.8164 16.1735 54.1191 19.2946 52.7246 21.2646C51.3301 23.2236 49.1719 24.2031 46.25 24.2031H38.3975V0.363281ZM43.4941 20.5674H45.5361C46.986 20.5674 48.0264 20.0251 48.6572 18.9404C49.2992 17.8447 49.6201 15.6201 49.6201 12.2666C49.6201 8.736 49.277 6.47819 48.5908 5.49316C47.9046 4.49707 46.8421 3.99902 45.4033 3.99902H43.4941V20.5674ZM59.0166 0.363281H66.9023C69.8132 0.363281 71.9603 1.20996 73.3438 2.90332C74.7383 4.58561 75.4355 7.58496 75.4355 11.9014C75.4355 16.1735 74.7383 19.2946 73.3438 21.2646C71.9492 23.2236 69.791 24.2031 66.8691 24.2031H59.0166V0.363281ZM64.1133 20.5674H66.1553C67.6051 20.5674 68.6455 20.0251 69.2764 18.9404C69.9183 17.8447 70.2393 15.6201 70.2393 12.2666C70.2393 8.736 69.8962 6.47819 69.21 5.49316C68.5238 4.49707 67.4613 3.99902 66.0225 3.99902H64.1133V20.5674Z" fill="#181818"/>
</svg>
