<svg id="Flag" xmlns="http://www.w3.org/2000/svg" xmlns:xlink="http://www.w3.org/1999/xlink" viewBox="0 0 512 512"><style>.st0,.st1,.st2{clip-path:url(#SVGID_2_);fill:#f8f7f7}.st1,.st2{fill:#ea6568}.st2{fill:#455ba4}</style><defs><circle id="SVGID_1_" cx="256" cy="256" r="256"/></defs><clipPath id="SVGID_2_"><use xlink:href="#SVGID_1_" overflow="visible"/></clipPath><path class="st0" d="M0 0h512v512H0z"/><path class="st1" d="M0 0h512v39.4H0z"/><path class="st0" d="M0 39.4h512v39.4H0z"/><path class="st1" d="M0 78.8h512v39.4H0z"/><path class="st0" d="M0 118.2h512v39.4H0z"/><path class="st1" d="M0 157.5h512v39.4H0z"/><path class="st0" d="M0 196.9h512v39.4H0z"/><path class="st1" d="M0 236.3h512v39.4H0z"/><path class="st0" d="M0 275.7h512v39.4H0z"/><path class="st1" d="M0 315.1h512v39.4H0z"/><path class="st0" d="M0 354.5h512v39.4H0z"/><path class="st1" d="M0 393.8h512v39.4H0z"/><path class="st0" d="M0 433.2h512v39.4H0z"/><path class="st1" d="M0 472.6h512V512H0z"/><path class="st2" d="M-101.2 0H277v275.7h-378.2z"/><path class="st0" d="M30.7 59.3l6.7-4.9c.6-.4.3-1.3-.4-1.3h-8.3l-.7-.4-2.6-7.9c-.2-.7-1.1-.7-1.4 0l-2.6 7.9-.7.5h-8.3c-.7 0-1 .9-.4 1.3l6.7 4.9.3.8-2.4 7.8c-.2.7.5 1.2 1.1.8l6.7-4.9h.8l6.7 4.9c.6.4 1.3-.1 1.1-.8l-2.6-7.9.3-.8zM93.5 59.3l6.7-4.9c.6-.4.3-1.3-.4-1.3h-8.3l-.7-.5-2.6-7.9c-.2-.7-1.1-.7-1.4 0l-2.6 7.9-.7.5h-8.3c-.7 0-1 .9-.4 1.3l6.7 4.9.3.8-2.4 7.9c-.2.7.5 1.2 1.1.8l6.7-4.9h.8l6.7 4.9c.6.4 1.3-.1 1.1-.8l-2.6-7.9.3-.8zM156.3 59.3l6.7-4.9c.6-.4.3-1.3-.4-1.3h-8.3l-.7-.5-2.6-7.9c-.2-.7-1.1-.7-1.4 0l-2.6 7.9-.7.5H138c-.7 0-1 .9-.4 1.3l6.7 4.9.3.8L142 68c-.2.7.5 1.2 1.1.8l6.7-4.9h.8l6.7 4.9c.6.4 1.3-.1 1.1-.8l-2.6-7.9.5-.8zM-.7 32.6L6 27.7c.6-.4.3-1.3-.4-1.3h-8.3l-.7-.5L-6 18c-.2-.7-1.1-.7-1.4 0l-2.6 7.9-.7.5H-19c-.7 0-1 .9-.4 1.3l6.7 4.9.3.8-2.6 7.9c-.2.7.5 1.2 1.1.8l6.7-4.9h.8L.5 42c.6.4 1.3-.1 1.1-.8L-1 33.3l.3-.7zM62.3 32.6l6.7-4.9c.6-.4.3-1.3-.4-1.3h-8.3l-.7-.5L57 18c-.2-.7-1.1-.7-1.4 0L53 25.9l-.7.5H44c-.7 0-1 .9-.4 1.3l6.7 4.9.3.8-2.6 7.9c-.2.7.5 1.2 1.1.8l6.7-4.9h.8l6.7 4.9c.6.4 1.3-.1 1.1-.8L62 33.4l.3-.8zM125.3 32.6l6.7-4.9c.6-.4.3-1.3-.4-1.3h-8.3l-.7-.5L120 18c-.2-.7-1.1-.7-1.4 0l-2.6 7.9-.7.5H107c-.7 0-1 .9-.4 1.3l6.7 4.9.3.8-2.6 7.9c-.2.7.5 1.2 1.1.8l6.7-4.9h.8l6.7 4.9c.6.4 1.3-.1 1.1-.8l-2.6-7.9.5-.8zM188.2 32.6l6.7-4.9c.6-.4.3-1.3-.4-1.3h-8.3l-.7-.5-2.6-7.9c-.2-.7-1.1-.7-1.4 0l-2.6 7.9-.7.5h-8.3c-.7 0-1 .9-.4 1.3l6.7 4.9.3.8-2.6 7.9c-.2.7.5 1.2 1.1.8l6.7-4.9h.8l6.7 4.9c.6.4 1.3-.1 1.1-.8l-2.6-7.9.5-.8zM30.7 113.3l6.7-4.9c.6-.4.3-1.3-.4-1.3h-8.3l-.7-.5-2.6-7.9c-.2-.7-1.1-.7-1.4 0l-2.6 7.9-.7.5h-8.3c-.7 0-1 .9-.4 1.3l6.7 4.9.3.8-2.6 7.9c-.2.7.5 1.2 1.1.8l6.7-4.9h.8l6.7 4.9c.6.4 1.3-.1 1.1-.8l-2.6-7.9.5-.8zM93.5 113.3l6.7-4.9c.6-.4.3-1.3-.4-1.3h-8.3l-.7-.5-2.6-7.9c-.2-.7-1.1-.7-1.4 0l-2.6 7.9-.7.5h-8.3c-.7 0-1 .9-.4 1.3l6.7 4.9.3.8-2.6 7.9c-.2.7.5 1.2 1.1.8l6.7-4.9h1l6.7 4.9c.6.4 1.3-.1 1.1-.8l-2.6-7.9.3-.8zM156.3 113.3l6.7-4.9c.6-.4.3-1.3-.4-1.3h-8.3l-.7-.5-2.6-7.9c-.2-.7-1.1-.7-1.4 0l-2.6 7.9-.7.5H138c-.7 0-1 .9-.4 1.3l6.7 4.9.3.8-2.6 7.9c-.2.7.5 1.2 1.1.8l6.7-4.9h.8l6.7 4.9c.6.4 1.3-.1 1.1-.8l-2.6-7.9.5-.8zM-.7 86.6L6 81.7c.6-.4.3-1.3-.4-1.3h-8.3l-.7-.5L-6 72c-.2-.7-1.1-.7-1.4 0l-2.6 7.9-.7.5H-19c-.7 0-1 .9-.4 1.3l6.7 4.9.3.8-2.6 7.9c-.2.7.5 1.2 1.1.8l6.7-4.9h.8L.5 96c.6.4 1.3-.1 1.1-.8L-1 87.3l.3-.7zM62.3 86.6l6.7-4.9c.6-.4.3-1.3-.4-1.3h-8.3l-.7-.5L57 72c-.2-.7-1.1-.7-1.4 0L53 79.9l-.7.5H44c-.7 0-1 .9-.4 1.3l6.7 4.9.3.8-2.6 7.9c-.2.7.5 1.2 1.1.8l6.7-4.9h.8l6.7 4.9c.6.4 1.3-.1 1.1-.8L62 87.4l.3-.8zM125.3 86.6l6.7-4.9c.6-.4.3-1.3-.4-1.3h-8.3l-.7-.5L120 72c-.2-.7-1.1-.7-1.4 0l-2.6 7.9-.7.5H107c-.7 0-1 .9-.4 1.3l6.7 4.9.3.8-2.6 7.9c-.2.7.5 1.2 1.1.8l6.7-4.9h.8l6.7 4.9c.6.4 1.3-.1 1.1-.8l-2.6-7.9.5-.8zM188.2 86.6l6.7-4.9c.6-.4.3-1.3-.4-1.3h-8.3l-.7-.5-2.6-7.9c-.2-.7-1.1-.7-1.4 0l-2.6 7.9-.7.5h-8.3c-.7 0-1 .9-.4 1.3l6.7 4.9.3.8-2.6 7.9c-.2.7.5 1.2 1.1.8l6.7-4.9h.8l6.7 4.9c.6.4 1.3-.1 1.1-.8l-2.6-7.9.5-.8zM30.7 167.3l6.7-4.9c.6-.4.3-1.3-.4-1.3h-8.3l-.7-.5-2.6-7.9c-.2-.7-1.1-.7-1.4 0l-2.6 7.9-.7.5h-8.3c-.7 0-1 .9-.4 1.3l6.7 4.9.3.8-2.6 7.9c-.2.7.5 1.2 1.1.8l6.7-4.9h.8l6.7 4.9c.6.4 1.3-.1 1.1-.8l-2.6-7.9.5-.8zM93.5 167.3l6.7-4.9c.6-.4.3-1.3-.4-1.3h-8.3l-.7-.5-2.6-7.9c-.2-.7-1.1-.7-1.4 0l-2.6 7.9-.7.5h-8.3c-.7 0-1 .9-.4 1.3l6.7 4.9.3.8-2.6 7.9c-.2.7.5 1.2 1.1.8l6.7-4.9h1l6.7 4.9c.6.4 1.3-.1 1.1-.8l-2.6-7.9.3-.8zM156.3 167.3l6.7-4.9c.6-.4.3-1.3-.4-1.3h-8.3l-.7-.5-2.6-7.9c-.2-.7-1.1-.7-1.4 0l-2.6 7.9-.7.5H138c-.7 0-1 .9-.4 1.3l6.7 4.9.3.8-2.6 7.9c-.2.7.5 1.2 1.1.8l6.7-4.9h.8l6.7 4.9c.6.4 1.3-.1 1.1-.8l-2.6-7.9.5-.8zM-.7 140.5l6.7-4.9c.6-.4.3-1.3-.4-1.3h-8.3l-.7-.5-2.6-7.9c-.2-.7-1.1-.7-1.4 0l-2.6 7.9-.7.5H-19c-.7 0-1 .9-.4 1.3l6.7 4.9.3.8-2.6 7.9c-.2.7.5 1.2 1.1.8l6.7-4.9h.8L.3 150c.6.4 1.3-.1 1.1-.8l-2.6-7.9.5-.8zM62.3 140.5l6.7-4.9c.6-.4.3-1.3-.4-1.3h-8.3l-.7-.5-2.6-7.9c-.2-.7-1.1-.7-1.4 0l-2.6 7.9-.7.5H44c-.7 0-1 .9-.4 1.3l6.7 4.9.3.8-2.6 7.9c-.2.7.5 1.2 1.1.8l6.7-4.9h.8l6.7 4.9c.6.4 1.3-.1 1.1-.8l-2.6-7.9.5-.8zM125.3 140.5l6.7-4.9c.6-.4.3-1.3-.4-1.3h-8.3l-.7-.5-2.6-7.9c-.2-.7-1.1-.7-1.4 0l-2.6 7.9-.7.5H107c-.7 0-1 .9-.4 1.3l6.7 4.9.3.8-2.6 7.9c-.2.7.5 1.2 1.1.8l6.7-4.9h.8l6.7 4.9c.6.4 1.3-.1 1.1-.8l-2.6-7.9.5-.8zM188.2 140.5l6.7-4.9c.6-.4.3-1.3-.4-1.3h-8.3l-.7-.5-2.6-7.9c-.2-.7-1.1-.7-1.4 0l-2.6 7.9-.7.5h-8.3c-.7 0-1 .9-.4 1.3l6.7 4.9.3.8-2.6 7.9c-.2.7.5 1.2 1.1.8l6.7-4.9h.8l6.7 4.9c.6.4 1.3-.1 1.1-.8l-2.6-7.9.5-.8zM30.7 221.3l6.7-4.9c.6-.4.3-1.3-.4-1.3h-8.3l-.7-.5-2.6-7.9c-.2-.7-1.1-.7-1.4 0l-2.6 7.9-.7.5h-8.3c-.7 0-1 .9-.4 1.3l6.7 4.9.3.8-2.6 7.9c-.2.7.5 1.2 1.1.8l6.7-4.9h.8l6.7 4.9c.6.4 1.3-.1 1.1-.8l-2.6-7.9.5-.8zM93.5 221.3l6.7-4.9c.6-.4.3-1.3-.4-1.3h-8.3l-.7-.5-2.6-7.9c-.2-.7-1.1-.7-1.4 0l-2.6 7.9-.7.5h-8.3c-.7 0-1 .9-.4 1.3l6.7 4.9.3.8-2.6 7.9c-.2.7.5 1.2 1.1.8l6.7-4.9h1l6.7 4.9c.6.4 1.3-.1 1.1-.8l-2.6-7.9.3-.8zM156.3 221.3l6.7-4.9c.6-.4.3-1.3-.4-1.3h-8.3l-.7-.5-2.6-7.9c-.2-.7-1.1-.7-1.4 0l-2.6 7.9-.7.5H138c-.7 0-1 .9-.4 1.3l6.7 4.9.3.8-2.6 7.9c-.2.7.5 1.2 1.1.8l6.7-4.9h.8l6.7 4.9c.6.4 1.3-.1 1.1-.8l-2.6-7.9.5-.8zM-.7 194.5l6.7-4.9c.6-.4.3-1.3-.4-1.3h-8.3l-.7-.5-2.6-7.9c-.2-.7-1.1-.7-1.4 0l-2.6 7.9-.7.5H-19c-.7 0-1 .9-.4 1.3l6.7 4.9.3.8-2.6 7.9c-.2.7.5 1.2 1.1.8l6.7-4.9h.8L.3 204c.6.4 1.3-.1 1.1-.8l-2.6-7.9.5-.8zM62.3 194.5l6.7-4.9c.6-.4.3-1.3-.4-1.3h-8.3l-.7-.5-2.6-7.9c-.2-.7-1.1-.7-1.4 0l-2.6 7.9-.7.5H44c-.7 0-1 .9-.4 1.3l6.7 4.9.3.8-2.6 7.9c-.2.7.5 1.2 1.1.8l6.7-4.9h.8l6.7 4.9c.6.4 1.3-.1 1.1-.8l-2.6-7.9.5-.8zM125.3 194.5l6.7-4.9c.6-.4.3-1.3-.4-1.3h-8.3l-.7-.5-2.6-7.8c-.2-.7-1.1-.7-1.4 0l-2.6 7.9-.7.5H107c-.7 0-1 .9-.4 1.3l6.7 4.9.3.8-2.6 7.9c-.2.7.5 1.2 1.1.8l6.7-4.9h.8l6.7 4.9c.6.4 1.3-.1 1.1-.8l-2.6-7.9.5-.9zM188.2 194.5l6.7-4.9c.6-.4.3-1.3-.4-1.3h-8.3l-.7-.5-2.5-7.8c-.2-.7-1.1-.7-1.4 0l-2.6 7.9-.7.5H170c-.7 0-1 .9-.4 1.3l6.7 4.9.3.8-2.6 7.9c-.2.7.5 1.2 1.1.8l6.7-4.9h.8l6.7 4.9c.6.4 1.3-.1 1.1-.8l-2.6-7.9.4-.9zM-.7 248.5l6.7-4.9c.6-.4.3-1.3-.4-1.3h-8.3l-.7-.5-2.6-7.9c-.2-.7-1.1-.7-1.4 0l-2.6 7.9-.7.5H-19c-.7 0-1 .9-.4 1.3l6.7 4.9.3.8-2.6 7.9c-.2.7.5 1.2 1.1.8l6.7-4.9h.8L.3 258c.6.4 1.3-.1 1.1-.8l-2.6-7.9.5-.8zM62.3 248.5l6.7-4.9c.6-.4.3-1.3-.4-1.3h-8.3l-.7-.5-2.6-7.9c-.2-.7-1.1-.7-1.4 0l-2.6 7.9-.7.5H44c-.7 0-1 .9-.4 1.3l6.7 4.9.3.8-2.6 7.9c-.2.7.5 1.2 1.1.8l6.7-4.9h.8l6.7 4.9c.6.4 1.3-.1 1.1-.8l-2.6-7.9.5-.8zM125.3 248.5l6.7-4.9c.6-.4.3-1.3-.4-1.3h-8.3l-.7-.5-2.6-7.8c-.2-.7-1.1-.7-1.4 0l-2.6 7.9-.7.5H107c-.7 0-1 .9-.4 1.3l6.7 4.9.3.8-2.6 7.9c-.2.7.5 1.2 1.1.8l6.7-4.9h.8l6.7 4.9c.6.4 1.3-.1 1.1-.8l-2.6-7.9.5-.9zM188.2 248.5l6.7-4.9c.6-.4.3-1.3-.4-1.3h-8.3l-.7-.5-2.5-7.8c-.2-.7-1.1-.7-1.4 0l-2.6 7.9-.7.5H170c-.7 0-1 .9-.4 1.3l6.7 4.9.3.8-2.6 7.9c-.2.7.5 1.2 1.1.8l6.7-4.9h.8l6.7 4.9c.6.4 1.3-.1 1.1-.8l-2.6-7.9.4-.9zM219.2 59.3l6.7-4.9c.6-.4.3-1.3-.4-1.3h-8.3l-.7-.5-2.6-7.9c-.2-.7-1.1-.7-1.4 0l-2.6 7.9-.7.5h-8.3c-.7 0-1 .9-.4 1.3l6.7 4.9.3.8-2.6 7.9c-.2.7.5 1.2 1.1.8l6.7-4.9h.8l6.7 4.9c.6.4 1.3-.1 1.1-.8l-2.6-7.9.5-.8zM251.2 32.6l6.7-4.9c.6-.4.3-1.3-.4-1.3h-8.3l-.7-.5-2.6-7.9c-.2-.7-1.1-.7-1.4 0l-2.6 7.9-.7.5h-8.3c-.7 0-1 .9-.4 1.3l6.7 4.9.3.8-2.6 7.9c-.2.7.5 1.2 1.1.8l6.7-4.9h.8l6.7 4.9c.6.4 1.3-.1 1.1-.8l-2.6-7.9.5-.8zM219.2 113.3l6.7-4.9c.6-.4.3-1.3-.4-1.3h-8.3l-.7-.5-2.6-7.9c-.2-.7-1.1-.7-1.4 0l-2.6 7.9-.7.5h-8.3c-.7 0-1 .9-.4 1.3l6.7 4.9.3.8-2.6 7.9c-.2.7.5 1.2 1.1.8l6.7-4.9h.8l6.7 4.9c.6.4 1.3-.1 1.1-.8l-2.6-7.9.5-.8zM251.2 86.6l6.7-4.9c.6-.4.3-1.3-.4-1.3h-8.3l-.7-.5-2.6-7.9c-.2-.7-1.1-.7-1.4 0l-2.6 7.9-.7.5h-8.3c-.7 0-1 .9-.4 1.3l6.7 4.9.3.8-2.6 7.9c-.2.7.5 1.2 1.1.8l6.7-4.9h.8l6.7 4.9c.6.4 1.3-.1 1.1-.8l-2.6-7.9.5-.8zM219.2 167.3l6.7-4.9c.6-.4.3-1.3-.4-1.3h-8.3l-.7-.5-2.6-7.9c-.2-.7-1.1-.7-1.4 0l-2.6 7.9-.7.5h-8.3c-.7 0-1 .9-.4 1.3l6.7 4.9.3.8-2.6 7.9c-.2.7.5 1.2 1.1.8l6.7-4.9h.8l6.7 4.9c.6.4 1.3-.1 1.1-.8l-2.6-7.9.5-.8zM251.2 140.5l6.7-4.9c.6-.4.3-1.3-.4-1.3h-8.3l-.7-.5-2.6-7.9c-.2-.7-1.1-.7-1.4 0l-2.6 7.9-.7.5h-8.3c-.7 0-1 .9-.4 1.3l6.7 4.9.3.8-2.6 7.9c-.2.7.5 1.2 1.1.8l6.7-4.9h.8l6.7 4.9c.6.4 1.3-.1 1.1-.8l-2.6-7.9.5-.8zM219.2 221.3l6.7-4.9c.6-.4.3-1.3-.4-1.3h-8.3l-.7-.5-2.6-7.9c-.2-.7-1.1-.7-1.4 0l-2.6 7.9-.7.5h-8.3c-.7 0-1 .9-.4 1.3l6.7 4.9.3.8-2.6 7.9c-.2.7.5 1.2 1.1.8l6.7-4.9h.8l6.7 4.9c.6.4 1.3-.1 1.1-.8l-2.6-7.9.5-.8zM251.2 194.5l6.7-4.9c.6-.4.3-1.3-.4-1.3h-8.3l-.7-.5-2.6-7.9c-.2-.7-1.1-.7-1.4 0l-2.6 7.9-.7.5h-8.3c-.7 0-1 .9-.4 1.3l6.7 4.9.3.8-2.6 7.9c-.2.7.5 1.2 1.1.8l6.7-4.9h.8l6.7 4.9c.6.4 1.3-.1 1.1-.8l-2.6-7.9.5-.8zM251.2 248.5l6.7-4.9c.6-.4.3-1.3-.4-1.3h-8.3l-.7-.5-2.6-7.9c-.2-.7-1.1-.7-1.4 0l-2.6 7.9-.7.5h-8.3c-.7 0-1 .9-.4 1.3l6.7 4.9.3.8-2.6 7.9c-.2.7.5 1.2 1.1.8l6.7-4.9h.8l6.7 4.9c.6.4 1.3-.1 1.1-.8l-2.6-7.9.5-.8z"/></svg>