<svg width="24" height="24" viewBox="0 0 24 24" fill="none" xmlns="http://www.w3.org/2000/svg">
<path d="M12 17L13 15V9.858C14.721 9.411 16 7.858 16 6C16 3.794 14.206 2 12 2C9.794 2 8 3.794 8 6C8 7.858 9.279 9.411 11 9.858V15L12 17ZM10 6C10 4.897 10.897 4 12 4C13.103 4 14 4.897 14 6C14 7.103 13.103 8 12 8C10.897 8 10 7.103 10 6Z" fill="black"/>
<path d="M16.267 10.5625L15.734 12.4905C18.325 13.2065 20 14.5835 20 15.9995C20 17.8915 16.715 19.9995 12 19.9995C7.285 19.9995 4 17.8915 4 15.9995C4 14.5835 5.675 13.2065 8.267 12.4895L7.734 10.5615C4.197 11.5395 2 13.6225 2 15.9995C2 19.3635 6.393 21.9995 12 21.9995C17.607 21.9995 22 19.3635 22 15.9995C22 13.6225 19.803 11.5395 16.267 10.5625Z" fill="black"/>
</svg>
